<?xml version="1.0" encoding="utf-8"?>
<!-- Generator: Adobe Illustrator 27.9.2, SVG Export Plug-In . SVG Version: 6.00 Build 0)  -->
<svg version="1.1" id="Layer_1" xmlns="http://www.w3.org/2000/svg" xmlns:xlink="http://www.w3.org/1999/xlink" x="0px" y="0px"
	 viewBox="0 0 256 256" style="enable-background:new 0 0 256 256;" xml:space="preserve">
<style type="text/css">
	.st0{fill:#FFFFFF;}
	.st1{font-family:'Sophia';}
	.st2{font-size:208.2902px;}
	.st3{font-size:198.2689px;}
</style>
<image style="overflow:visible;" width="256" height="256" xlink:href="favicon-256x256.png"  transform="matrix(1 0 0 1 451 -331)">
</image>
<g>
	<g>
		<path d="M37.3,125.4c0-3.2,0-6.4,0-9.6c0.3-0.8,0.8-1.6,1-2.4c2.9-14.2,9.9-25,24.5-29.4c2.5,0,5,0,7.4,0
			c12.6,3.9,19.5,13,22.6,25.9c3.2-3.3,5.6-6.4,8.5-8.9c15.5-13.4,36.1-7.1,41.7,12.6c0.4,1.5,1,2.9,1.5,4.4c0,3.9,0,7.8,0,11.7
			c-2,10.7-6.5,19.7-16.4,25.3c-3.7,2.1-7.4,4.1-11.3,5.7c-13.8,5.9-26.5,13.2-36.7,25.1c-4.8-13.6-13.4-24-23.7-33
			C47.8,145.2,40.5,136.8,37.3,125.4z"/>
		<path class="st0" d="M37.3,125.4c3.2,11.3,10.5,19.8,19.1,27.3c10.4,9.1,18.9,19.5,23.7,33c10.2-11.8,22.9-19.2,36.7-25.1
			c3.9-1.7,7.6-3.7,11.3-5.7c9.8-5.6,14.4-14.6,16.4-25.3c0,19.1,0,38.2,0,57.3c-35.8,0-71.5,0-107.3,0
			C37.3,166.5,37.3,145.9,37.3,125.4z"/>
		<path class="st0" d="M144.6,118c-0.5-1.5-1.1-2.9-1.5-4.4c-5.6-19.7-26.2-25.9-41.7-12.6c-2.9,2.5-5.3,5.5-8.5,8.9
			c-3.2-12.9-10-22-22.6-25.9c24.8,0,49.6,0,74.3,0C144.6,95.3,144.6,106.7,144.6,118z"/>
		<path class="st0" d="M62.8,84c-14.6,4.4-21.6,15.2-24.5,29.4c-0.2,0.8-0.7,1.6-1,2.4c0-10.5,0-21,0-31.9C45.8,84,54.3,84,62.8,84z
			"/>
	</g>
</g>
<g>
	<text transform="matrix(1 0 0 1 -4 205.1537)" class="st1 st2">T</text>
	<text transform="matrix(1 0 0 1 105.1227 199.5243)" class="st1 st3">M</text>
</g>
</svg>
